<svg width="32" height="32" viewBox="0 0 32 32" fill="none" xmlns="http://www.w3.org/2000/svg">
<g clip-path="url(#clip0_15_231)">
<path fill-rule="evenodd" clip-rule="evenodd" d="M15.9484 0.485352C18.833 0.518268 21.4389 1.22721 23.7662 2.61218C26.0658 3.9695 27.9786 5.89407 29.3219 8.20184C30.6984 10.5432 31.4031 13.1649 31.4359 16.067C31.3542 20.0379 30.1017 23.4293 27.6786 26.2415C25.2555 29.0536 22.1521 30.7933 18.9394 31.4603V20.3273H21.9767L22.6636 15.9523H18.0644V13.0868C18.0389 12.4927 18.2268 11.9092 18.594 11.4416C18.9619 10.9727 19.6096 10.7263 20.5371 10.7023H23.3144V6.86989C23.2746 6.85707 22.8965 6.80637 22.18 6.71779C21.3676 6.62273 20.5505 6.57196 19.7325 6.56569C17.8812 6.57424 16.417 7.09647 15.34 8.13241C14.2629 9.16805 13.7128 10.6664 13.6894 12.6275V15.9523H10.1894V20.3273H13.6894V31.4603C9.74477 30.7933 6.64132 29.0536 4.2182 26.2415C1.79507 23.4293 0.5427 20.0378 0.460938 16.067C0.49365 13.1647 1.19831 10.543 2.57491 8.20184C3.91821 5.89407 5.83109 3.96951 8.13064 2.61218C10.4579 1.22748 13.0638 0.518535 15.9484 0.485352Z" fill="#1F2937"/>
</g>
<defs>
<clipPath id="clip0_15_231">
<rect width="32" height="32" fill="white"/>
</clipPath>
</defs>
</svg>
