<svg width="32" height="32" viewBox="0 0 32 32" fill="none" xmlns="http://www.w3.org/2000/svg">
<g id="instagram 1" clip-path="url(#clip0_15_235)">
<path id="Vector" fill-rule="evenodd" clip-rule="evenodd" d="M15.9992 12.5006C18.163 12.5006 19.917 14.2275 19.917 16.3578C19.917 18.4876 18.1629 20.2145 15.9992 20.2145C13.8355 20.2145 12.0814 18.4876 12.0814 16.3578C12.0814 14.2275 13.8355 12.5006 15.9992 12.5006ZM15.9992 10.9583C12.97 10.9583 10.5143 13.3756 10.5143 16.3578C10.5143 19.3395 12.97 21.7573 15.9992 21.7573C19.0284 21.7573 21.4841 19.3395 21.4841 16.3578C21.4841 13.3756 19.0285 10.9583 15.9992 10.9583ZM21.6535 9.66028C21.3494 9.66504 21.0534 9.75957 20.8029 9.93199C20.5524 10.1044 20.3584 10.347 20.2453 10.6294C20.1322 10.9117 20.1051 11.2212 20.1673 11.5189C20.2296 11.8166 20.3784 12.0893 20.5952 12.3026C20.8119 12.516 21.0869 12.6606 21.3855 12.7181C21.6841 12.7757 21.9931 12.7438 22.2737 12.6263C22.5542 12.5088 22.7938 12.311 22.9622 12.0578C23.1307 11.8046 23.2206 11.5072 23.2206 11.2031C23.2173 10.7907 23.0504 10.3965 22.7565 10.1072C22.4626 9.81784 22.0659 9.65709 21.6535 9.66028ZM12.1706 7.9812H19.8278C22.3188 7.9812 24.3382 9.96918 24.3382 12.4211V20.294C24.3382 22.7464 22.3188 24.734 19.8278 24.734H12.1706C9.67959 24.734 7.66018 22.7464 7.66018 20.294V12.4211C7.66018 9.96918 9.67956 7.9812 12.1706 7.9812ZM11.4484 6.44568C8.48752 6.44568 6.0872 8.8088 6.0872 11.7235V20.9917C6.0872 23.9068 8.48749 26.2695 11.4484 26.2695H20.55C23.5109 26.2695 25.9112 23.9068 25.9112 20.9917V11.7235C25.9112 8.80878 23.5109 6.44568 20.55 6.44568H11.4484ZM15.9992 0.870117C24.5527 0.870117 31.4867 7.80387 31.4867 16.3578C31.4867 24.9113 24.5527 31.845 15.9992 31.845C7.44568 31.845 0.511719 24.9113 0.511719 16.3578C0.511719 7.80389 7.44568 0.870117 15.9992 0.870117Z" fill="#1F2937"/>
</g>
<defs>
<clipPath id="clip0_15_235">
<rect width="32" height="32" fill="white"/>
</clipPath>
</defs>
</svg>
